<svg viewBox="0 0 30 30" xmlns="http://www.w3.org/2000/svg">
  <path id="Vector"
    d="M17.6047 8.00307H15.5325C12.8934 7.97663 12.5564 9.61161 12.5564 11.3811V12.6678H11.3914C11.3387 12.6607 11.2851 12.6659 11.2348 12.683C11.1845 12.7 11.1388 12.7284 11.1012 12.766C11.0637 12.8036 11.0353 12.8494 11.0182 12.8998C11.0012 12.9502 10.996 13.0038 11.003 13.0565V15.3888C10.996 15.4415 11.0012 15.4952 11.0182 15.5455C11.0353 15.5959 11.0637 15.6417 11.1012 15.6793C11.1388 15.7169 11.1845 15.7453 11.2348 15.7623C11.2851 15.7794 11.3387 15.7846 11.3914 15.7776H12.5564V21.6084C12.5499 21.6612 12.5556 21.7148 12.5729 21.7651C12.5903 21.8154 12.619 21.861 12.6566 21.8985C12.6943 21.936 12.7401 21.9644 12.7904 21.9815C12.8408 21.9986 12.8943 22.0039 12.947 21.9971H15.3197C15.5488 22.0236 15.7345 21.8378 15.6615 21.6084L15.663 15.7776H17.6047C17.6573 15.7846 17.7109 15.7794 17.7612 15.7623C17.8115 15.7453 17.8572 15.7169 17.8948 15.6793C17.9324 15.6417 17.9608 15.5959 17.9778 15.5455C17.9948 15.4952 18 15.4415 17.993 15.3888V13.0565C18 13.0038 17.9948 12.9502 17.9778 12.8998C17.9608 12.8494 17.9324 12.8036 17.8948 12.766C17.8572 12.7284 17.8115 12.7 17.7612 12.683C17.7109 12.6659 17.6573 12.6607 17.6047 12.6678H15.6607L15.663 11.5016C15.7383 11.0048 15.7383 11.0857 16.1989 11.1129H17.5884C17.6963 11.0888 17.8113 11.102 17.892 11.0235C17.9728 10.9449 18.0194 10.8376 17.9922 10.7241V8.39179C17.9994 8.33913 17.9943 8.28551 17.9774 8.23513C17.9605 8.18476 17.9321 8.13897 17.8946 8.10135C17.8571 8.06373 17.8114 8.03528 17.7611 8.01823C17.7108 8.00119 17.6573 7.996 17.6047 8.00307ZM17.1892 10.2919L16.2152 10.2546C15.0091 10.2546 14.9081 10.9099 14.9081 11.5809L14.905 13.0549C14.9049 13.1095 14.9155 13.1636 14.9363 13.214C14.9571 13.2645 14.9877 13.3104 15.0262 13.349C15.0647 13.3876 15.1105 13.4183 15.1608 13.4392C15.2112 13.4601 15.2652 13.4709 15.3197 13.4709H17.2163V14.9729H15.3213C15.2112 14.9729 15.1056 15.0166 15.0277 15.0944C14.9498 15.1723 14.906 15.2779 14.9058 15.3881L14.905 21.2197H13.333V15.3888C13.333 15.1595 13.1769 14.9737 12.947 14.9737H11.7797V13.4716H12.947C13.0015 13.4717 13.0555 13.4611 13.1059 13.4402C13.1562 13.4194 13.202 13.3889 13.2406 13.3504C13.3183 13.2718 13.3323 13.1661 13.3323 13.0557V11.3803C13.3323 9.63726 13.6841 8.80695 15.5318 8.80695H17.1884L17.1892 10.2919Z"
    />
</svg>