<svg width="17" height="17" viewBox="0 0 17 17" fill="none" xmlns="http://www.w3.org/2000/svg">
<path d="M10.8963 3.30322H6.10296C4.55629 3.30322 3.30273 4.557 3.30273 6.10344V10.8968C3.30273 12.4434 4.55651 13.697 6.10318 13.697H10.8961C12.4427 13.697 13.6965 12.4432 13.6965 10.8966V6.10344C13.6965 4.55678 12.443 3.30322 10.8963 3.30322Z" stroke="white" stroke-miterlimit="10"/>
<path d="M8.5001 11.009C9.88572 11.009 11.009 9.88572 11.009 8.5001C11.009 7.11448 9.88572 5.99121 8.5001 5.99121C7.11448 5.99121 5.99121 7.11448 5.99121 8.5001C5.99121 9.88572 7.11448 11.009 8.5001 11.009Z" stroke="white" stroke-miterlimit="10"/>
<path d="M11.5463 5.99113C11.8432 5.99113 12.0839 5.75046 12.0839 5.45357C12.0839 5.15669 11.8432 4.91602 11.5463 4.91602C11.2495 4.91602 11.0088 5.15669 11.0088 5.45357C11.0088 5.75046 11.2495 5.99113 11.5463 5.99113Z" fill="white"/>
</svg>
