<svg width="38" height="38" viewBox="0 0 38 38" fill="none" xmlns="http://www.w3.org/2000/svg">
<path d="M22.6026 5.63042C22.6429 5.47972 22.7125 5.33843 22.8074 5.21464C22.9024 5.09084 23.0208 4.98697 23.1559 4.90894C23.291 4.83092 23.4401 4.78028 23.5948 4.75992C23.7494 4.73956 23.9066 4.74987 24.0573 4.79027C26.2587 5.36464 28.2672 6.51547 29.876 8.12423C31.4847 9.73298 32.6356 11.7415 33.2099 13.9429C33.2503 14.0936 33.2606 14.2508 33.2403 14.4054C33.2199 14.5601 33.1693 14.7093 33.0913 14.8443C33.0132 14.9794 32.9094 15.0978 32.7856 15.1928C32.6618 15.2877 32.5205 15.3573 32.3698 15.3976C32.2695 15.424 32.1662 15.4374 32.0625 15.4377C31.8008 15.4377 31.5465 15.3512 31.339 15.1918C31.1315 15.0323 30.9825 14.8088 30.9151 14.556C30.4466 12.7589 29.5074 11.1192 28.1942 9.806C26.881 8.4928 25.2413 7.55356 23.4442 7.08511C23.2934 7.04496 23.1519 6.97547 23.028 6.8806C22.904 6.78574 22.8 6.66737 22.7218 6.53226C22.6437 6.39715 22.5929 6.24796 22.5724 6.09321C22.552 5.93846 22.5622 5.7812 22.6026 5.63042ZM22.2567 11.8351C24.3037 12.3814 25.6188 13.6965 26.1651 15.7435C26.2325 15.9963 26.3815 16.2198 26.589 16.3793C26.7965 16.5387 27.0508 16.6252 27.3125 16.6252C27.4162 16.6249 27.5195 16.6115 27.6198 16.5851C27.7705 16.5448 27.9118 16.4752 28.0356 16.3803C28.1594 16.2853 28.2632 16.1669 28.3413 16.0318C28.4193 15.8968 28.4699 15.7476 28.4903 15.5929C28.5106 15.4383 28.5003 15.2811 28.4599 15.1304C27.6999 12.2864 25.7138 10.3003 22.8698 9.54027C22.7191 9.50001 22.562 9.48983 22.4073 9.51031C22.2527 9.53078 22.1037 9.58151 21.9687 9.65959C21.8336 9.73768 21.7153 9.84159 21.6205 9.9654C21.5256 10.0892 21.4561 10.2305 21.4158 10.3812C21.3756 10.5318 21.3654 10.689 21.3859 10.8436C21.4063 10.9982 21.4571 11.1473 21.5352 11.2823C21.6132 11.4173 21.7172 11.5356 21.841 11.6305C21.9648 11.7253 22.1061 11.7949 22.2567 11.8351ZM34.4197 25.9886C34.155 28 33.1672 29.8463 31.6408 31.1826C30.1144 32.5189 28.1537 33.2538 26.125 33.2502C14.3391 33.2502 4.75001 23.6611 4.75001 11.8752C4.74638 9.84648 5.48135 7.88582 6.81765 6.35939C8.15395 4.83297 10.0002 3.84517 12.0116 3.5805C12.5202 3.5184 13.0353 3.62245 13.4799 3.87714C13.9245 4.13182 14.2749 4.52347 14.4786 4.99363L17.6136 11.9925V12.0103C17.7696 12.3702 17.834 12.7631 17.8011 13.1539C17.7682 13.5448 17.639 13.9214 17.4251 14.2502C17.3984 14.2903 17.3702 14.3274 17.3405 14.3645L14.25 18.0279C15.3618 20.2871 17.7249 22.6295 20.0138 23.7443L23.6268 20.6701C23.6623 20.6403 23.6995 20.6125 23.7381 20.587C24.0666 20.3679 24.4445 20.2342 24.8377 20.1979C25.2309 20.1616 25.6269 20.2239 25.9899 20.3792L26.0092 20.3881L33.0021 23.5216C33.4731 23.7246 33.8657 24.0746 34.1212 24.5193C34.3768 24.964 34.4815 25.4795 34.4197 25.9886ZM32.0625 25.6918H32.0462L25.0696 22.5671L21.4552 25.6413C21.4201 25.671 21.3834 25.6987 21.3453 25.7244C21.0036 25.9524 20.6085 26.0879 20.1987 26.1175C19.7889 26.1472 19.3785 26.07 19.0074 25.8936C16.2272 24.5503 13.4559 21.7997 12.111 19.0492C11.9329 18.6808 11.853 18.2727 11.879 17.8644C11.905 17.4561 12.0361 17.0615 12.2595 16.7187C12.2846 16.6785 12.3129 16.6402 12.3441 16.6044L15.4375 12.9365L12.3203 5.95995C12.3197 5.95403 12.3197 5.94806 12.3203 5.94214C10.8809 6.12991 9.55921 6.83598 8.60287 7.92811C7.64654 9.02024 7.12112 10.4235 7.12501 11.8752C7.13051 16.9126 9.13406 21.7421 12.6961 25.3041C16.2581 28.8661 21.0876 30.8697 26.125 30.8752C27.5758 30.8802 28.9787 30.3566 30.0715 29.4023C31.1642 28.4481 31.872 27.1285 32.0625 25.6903V25.6918Z" fill="white"/>
</svg>
