<svg width="38" height="38" viewBox="0 0 38 38" fill="none" xmlns="http://www.w3.org/2000/svg">
<path d="M19 18.9998C19.8708 18.9998 20.6166 18.6895 21.2372 18.0688C21.8579 17.4482 22.1677 16.7029 22.1666 15.8332C22.1666 14.9623 21.8563 14.2166 21.2356 13.5959C20.615 12.9753 19.8698 12.6654 19 12.6665C18.1291 12.6665 17.3834 12.9768 16.7627 13.5975C16.1421 14.2182 15.8323 14.9634 15.8333 15.8332C15.8333 16.704 16.1436 17.4498 16.7643 18.0704C17.385 18.6911 18.1302 19.0009 19 18.9998ZM19 30.6373C22.2194 27.6818 24.6076 24.9964 26.1646 22.5813C27.7215 20.1662 28.5 18.0224 28.5 16.1498C28.5 13.2734 27.5827 10.9185 25.7481 9.085C23.9136 7.2515 21.6642 6.33423 19 6.33317C16.3347 6.33317 14.0848 7.25045 12.2502 9.085C10.4157 10.9196 9.49892 13.2745 9.49998 16.1498C9.49998 18.0234 10.2785 20.1678 11.8354 22.5829C13.3923 24.998 15.7805 27.6828 19 30.6373ZM19 34.2394C18.7889 34.2394 18.5778 34.1998 18.3666 34.1207C18.1555 34.0415 17.9708 33.9359 17.8125 33.804C13.9597 30.3998 11.0833 27.2395 9.18331 24.323C7.28331 21.4065 6.33331 18.6821 6.33331 16.1498C6.33331 12.1915 7.60684 9.03803 10.1539 6.68942C12.701 4.34081 15.6496 3.1665 19 3.1665C22.3514 3.1665 25.3006 4.34081 27.8476 6.68942C30.3947 9.03803 31.6677 12.1915 31.6666 16.1498C31.6666 18.6832 30.7166 21.4081 28.8166 24.3246C26.9166 27.2411 24.0403 30.4009 20.1875 33.804C20.0291 33.9359 19.8444 34.0415 19.6333 34.1207C19.4222 34.1998 19.2111 34.2394 19 34.2394Z" fill="white"/>
</svg>
