<svg width="20" height="20" viewBox="0 0 20 20" fill="none" xmlns="http://www.w3.org/2000/svg">
<g clip-path="url(#clip0_159_4840)">
<path d="M4.395 8.29419C5.26029 8.29419 6.10615 8.55078 6.82562 9.03151C7.54508 9.51224 8.10584 10.1955 8.43697 10.9949C8.76811 11.7944 8.85475 12.674 8.68594 13.5227C8.51713 14.3714 8.10045 15.1509 7.48859 15.7628C6.87674 16.3746 6.09719 16.7913 5.24852 16.9601C4.39985 17.1289 3.52019 17.0423 2.72076 16.7112C1.92133 16.38 1.23805 15.8193 0.75732 15.0998C0.276589 14.3803 0.02 13.5345 0.02 12.6692L0 12.0442C0 9.72355 0.921872 7.49795 2.56282 5.85701C4.20376 4.21606 6.42936 3.29419 8.75 3.29419V5.79419C7.92888 5.79198 7.11546 5.95258 6.35679 6.26669C5.59812 6.5808 4.90925 7.04219 4.33 7.62419C4.10487 7.8489 3.89718 8.09043 3.70875 8.34669C3.9325 8.31169 4.16125 8.29294 4.39375 8.29294L4.395 8.29419ZM15.645 8.29419C16.5103 8.29419 17.3562 8.55078 18.0756 9.03151C18.7951 9.51224 19.3558 10.1955 19.687 10.9949C20.0181 11.7944 20.1047 12.674 19.9359 13.5227C19.7671 14.3714 19.3504 15.1509 18.7386 15.7628C18.1267 16.3746 17.3472 16.7913 16.4985 16.9601C15.6499 17.1289 14.7702 17.0423 13.9708 16.7112C13.1713 16.38 12.4881 15.8193 12.0073 15.0998C11.5266 14.3803 11.27 13.5345 11.27 12.6692L11.25 12.0442C11.25 9.72355 12.1719 7.49795 13.8128 5.85701C15.4538 4.21606 17.6794 3.29419 20 3.29419V5.79419C19.1789 5.79198 18.3655 5.95258 17.6068 6.26669C16.8481 6.5808 16.1592 7.04219 15.58 7.62419C15.3549 7.8489 15.1472 8.09043 14.9587 8.34669C15.1825 8.31169 15.4113 8.29419 15.645 8.29419Z" fill="#FFA500"/>
</g>
<defs>
<clipPath id="clip0_159_4840">
<rect width="20" height="20" fill="white"/>
</clipPath>
</defs>
</svg>
