<svg viewBox="0 0 14 12" xmlns="http://www.w3.org/2000/svg">
<path d="M13.8881 0.0760589C13.8434 0.0387953 13.7889 0.0140323 13.7307 0.00444951C13.6724 -0.00513326 13.6125 0.000829194 13.5575 0.0216917L0.422691 4.97787C0.288793 5.02798 0.175417 5.1187 0.099651 5.23635C0.0238855 5.35401 -0.0101635 5.49222 0.00263591 5.63016C0.0154353 5.7681 0.0743896 5.89828 0.170613 6.0011C0.266836 6.10392 0.395114 6.17379 0.536113 6.20019L4.14874 6.88385V10.7483C4.14872 10.8978 4.19505 11.0439 4.28178 11.1678C4.36851 11.2918 4.49168 11.3879 4.63548 11.4438C4.72802 11.4796 4.82678 11.4981 4.92649 11.4982C5.03085 11.498 5.1341 11.4775 5.23008 11.438C5.32606 11.3985 5.41281 11.3407 5.48517 11.2682L7.29991 9.45599L10.0868 11.8125C10.2281 11.9327 10.4098 11.9993 10.5982 12C10.6805 11.9997 10.7622 11.9872 10.8406 11.9631C10.9689 11.924 11.0843 11.853 11.1753 11.7574C11.2663 11.6618 11.3297 11.5448 11.3591 11.4182L13.9918 0.382266C14.005 0.326958 14.0023 0.269232 13.984 0.215285C13.9657 0.161338 13.9326 0.113207 13.8881 0.0760589ZM0.519261 5.58528C0.51546 5.55505 0.522522 5.52448 0.53927 5.49867C0.556019 5.47285 0.58144 5.45335 0.611295 5.44343L11.9307 1.17215L4.34772 6.41204L0.636571 5.70964C0.605116 5.7052 0.576231 5.69037 0.55484 5.6677C0.533449 5.64502 0.520875 5.61589 0.519261 5.58528ZM5.1125 10.9208C5.07666 10.9564 5.03064 10.9809 4.9803 10.9912C4.92996 11.0015 4.87759 10.9971 4.82984 10.9786C4.78209 10.9601 4.74113 10.9283 4.71217 10.8873C4.68322 10.8463 4.66758 10.7979 4.66724 10.7483V7.23005L6.90844 9.12353L5.1125 10.9208ZM10.8536 11.3045C10.8435 11.3469 10.8222 11.3861 10.7916 11.4181C10.7611 11.4502 10.7224 11.474 10.6794 11.4872C10.6364 11.5003 10.5905 11.5025 10.5464 11.4933C10.5023 11.4842 10.4614 11.4641 10.4277 11.4351L4.82473 6.69762L13.3605 0.799707L10.8536 11.3045Z"/>
</svg>
